<svg width="350" height="350" viewBox="0 0 350 350" fill="none" xmlns="http://www.w3.org/2000/svg">
<path d="M171.061 307C148.165 307 128.105 301.448 110.88 290.343C93.6551 279.238 80.3164 263.733 70.8638 243.829C61.6213 223.924 57 200.981 57 175C57 149.019 61.9364 126.076 71.8091 106.171C81.6818 86.2667 95.4406 70.7619 113.085 59.6572C130.94 48.5524 151.316 43 174.212 43C195.848 43 214.123 48.4476 229.037 59.3429L248.258 43H254.875V120.943H248.258L227.462 69.0857C212.338 56.5143 194.588 50.2286 174.212 50.2286C159.508 50.2286 146.275 54 134.511 61.5429C122.958 69.0857 113.821 80.0857 107.099 94.5429C100.587 109 97.3311 126.181 97.3311 146.086V203.6C97.3311 223.505 100.377 240.686 106.469 255.143C112.77 269.6 121.383 280.705 132.306 288.457C143.439 296 156.357 299.771 171.061 299.771C189.126 299.771 203.095 294.219 212.968 283.114C223.051 272.01 228.092 257.133 228.092 238.486V209.257L198.789 204.857V197.943H293V204.857L263.697 209.257V238.486C263.697 250.429 260.441 261.638 253.929 272.114C247.417 282.381 237.23 290.762 223.366 297.257C209.502 303.752 192.067 307 171.061 307Z" fill="#E1A661"/>
</svg>
